# xmcd
#
# Track frame offsets: 
#        150
#        21517
#        35800
#        51250
#        68747
#        83235
#        103732
#        121795
#        139337
#        154380
#        177935
#
# Disc length: 2404 seconds
#
# Revision: 10
# Processed by: cddbd v1.5.2PL0 Copyright (c) Steve Scherf et al.
# Submitted via: ExactAudioCopy v1.3
#
DISCID=9d09620b,a809660b
DTITLE=Rolling Stones - Dirty Work
DYEAR=1986
DGENRE=Rock
TTITLE0=One Hit
TTITLE1=Fight
TTITLE2=Harlem Shuffle
TTITLE3=Hold Back
TTITLE4=Too Rude
TTITLE5=Winning Ugly
TTITLE6=Back To Zero
TTITLE7=Dirty Work
TTITLE8=Had It With You
TTITLE9=Sleep Tonight
TTITLE10=Key To The Highway
EXTD=
EXTT0=
EXTT1=
EXTT2=
EXTT3=
EXTT4=
EXTT5=
EXTT6=
EXTT7=
EXTT8=
EXTT9=
EXTT10=
PLAYORDER=
